<svg xmlns="http://www.w3.org/2000/svg" xml:space="preserve" width="15" height="18.428" viewBox="0 0 15 18.428"><path d="M14.523 6.282c-0.107 0.083 -1.994 1.146 -1.994 3.51 0 2.735 2.401 3.702 2.473 3.726 -0.011 0.059 -0.381 1.325 -1.266 2.615 -0.789 1.135 -1.612 2.268 -2.865 2.268s-1.576 -0.728 -3.022 -0.728c-1.41 0 -1.911 0.752 -3.057 0.752s-1.946 -1.05 -2.865 -2.34C0.861 14.571 0 12.217 0 9.984c0 -3.582 2.329 -5.482 4.622 -5.482 1.218 0 2.233 0.8 2.998 0.8 0.728 0 1.863 -0.848 3.249 -0.848 0.525 0 2.412 0.048 3.654 1.828zm-4.312 -3.345c0.573 -0.68 0.979 -1.623 0.979 -2.567 0 -0.131 -0.011 -0.264 -0.035 -0.37 -0.932 0.035 -2.042 0.621 -2.711 1.397 -0.525 0.597 -1.015 1.541 -1.015 2.497 0 0.144 0.024 0.287 0.035 0.334 0.059 0.011 0.155 0.024 0.251 0.024 0.837 0 1.889 -0.56 2.497 -1.314z"/></svg>