<svg xmlns="http://www.w3.org/2000/svg" width="15" height="15.306" viewBox="0 0 3.969 4.05"><path d="M2.025 1.657v0.784h1.09c-0.048 0.252 -0.191 0.466 -0.407 0.609l0.657 0.51c0.383 -0.353 0.604 -0.873 0.604 -1.489 0 -0.144 -0.013 -0.282 -0.037 -0.414z" fill="#4285f4"/><path d="m0.89 2.41 -0.148 0.113 -0.525 0.409c0.333 0.661 1.016 1.117 1.808 1.117 0.547 0 1.005 -0.18 1.34 -0.49l-0.657 -0.51c-0.18 0.121 -0.411 0.195 -0.683 0.195 -0.526 0 -0.974 -0.355 -1.134 -0.834z" fill="#34a853"/><path d="M0.217 1.117C0.079 1.39 0 1.697 0 2.025s0.079 0.635 0.217 0.908c0 0.002 0.674 -0.523 0.674 -0.523 -0.04 -0.121 -0.064 -0.25 -0.064 -0.385s0.024 -0.263 0.064 -0.385z" fill="#fbbc05"/><path d="M2.025 0.806c0.298 0 0.563 0.103 0.775 0.302l0.58 -0.58C3.028 0.201 2.572 0 2.025 0 1.233 0 0.55 0.455 0.217 1.117L0.891 1.64c0.16 -0.479 0.607 -0.834 1.134 -0.834z" fill="#ea4335"/></svg>