<?xml version="1.0" encoding="UTF-8"?><svg id="Layer_1" xmlns="http://www.w3.org/2000/svg" xmlns:xlink="http://www.w3.org/1999/xlink" viewBox="0 0 433.89 107.7"><defs><linearGradient id="linear-gradient" x1="82" y1="46.47" x2="1.62" y2="46.47" gradientTransform="translate(0)" gradientUnits="userSpaceOnUse"><stop offset="0" stop-color="#07c49d"/><stop offset="1" stop-color="#fc697c"/></linearGradient><linearGradient id="linear-gradient-2" x1="1.62" y1="23.23" x2="41.81" y2="23.23" gradientTransform="translate(0)" gradientUnits="userSpaceOnUse"><stop offset="0" stop-color="#eb3836"/><stop offset="1" stop-color="#e435a4"/></linearGradient><linearGradient id="linear-gradient-3" x1="41.81" y1="23.23" x2="81.52" y2="23.23" gradientTransform="translate(0)" gradientUnits="userSpaceOnUse"><stop offset="0" stop-color="#eb82c2"/><stop offset="1" stop-color="#35f78f"/></linearGradient><linearGradient id="linear-gradient-4" x1="-1209.79" y1="-21.42" x2="-1290.17" y2="-21.42" gradientTransform="translate(-1208.17 39.82) rotate(-180)" gradientUnits="userSpaceOnUse"><stop offset="0" stop-color="#d472f7"/><stop offset="1" stop-color="#01f2f7"/></linearGradient><linearGradient id="linear-gradient-5" x1="41.81" y1="84.47" x2="82" y2="84.47" gradientUnits="userSpaceOnUse"><stop offset="0" stop-color="#0192dd"/><stop offset="1" stop-color="#00c5ed"/></linearGradient><linearGradient id="linear-gradient-6" x1="1.62" y1="84.47" x2="41.81" y2="84.47" gradientUnits="userSpaceOnUse"><stop offset="0" stop-color="#4d3af3"/><stop offset="1" stop-color="#0062cd"/></linearGradient></defs><g style="isolation:isolate;"><text transform="translate(92.07 83.16)" style="font-family:AvertaStd-Bold, AvertaStd-Bold; font-size:83.52px; font-weight:700; isolation:isolate; letter-spacing:-.04em;"><tspan x="0" y="0">Blockpay</tspan></text></g><polygon points="82 46.47 41.81 70.58 1.62 46.47 41.81 22.35 82 46.47" style="fill:url(#linear-gradient);"/><polygon points="1.62 46.47 1.62 24.11 41.81 0 41.81 22.35 1.62 46.47" style="fill:url(#linear-gradient-2); opacity:.8;"/><polygon points="41.81 0 82 24.11 82 46.47 41.81 22.35 41.81 0" style="fill:url(#linear-gradient-3); opacity:.8;"/><polygon points="1.62 61.23 41.81 37.12 82 61.23 41.81 85.35 1.62 61.23" style="fill:url(#linear-gradient-4); opacity:.8;"/><polygon points="82 61.23 82 83.59 41.81 107.7 41.81 85.35 82 61.23" style="fill:url(#linear-gradient-5);"/><polygon points="41.81 107.7 1.62 83.59 1.62 61.23 41.81 85.35 41.81 107.7" style="fill:url(#linear-gradient-6);"/></svg>