<svg width="462" height="114" viewBox="0 0 462 114" fill="none" xmlns="http://www.w3.org/2000/svg">
<path d="M134.556 52.972C138.42 53.924 141.388 55.716 143.46 58.348C145.588 60.98 146.652 64.256 146.652 68.176C146.652 73.104 144.972 77.08 141.612 80.104C138.308 83.128 133.52 84.64 127.248 84.64H102.552V25H124.056C130.384 25 135.2 26.232 138.504 28.696C141.864 31.16 143.544 34.772 143.544 39.532C143.544 42.444 142.816 45.104 141.36 47.512C139.904 49.92 137.636 51.712 134.556 52.888V52.972ZM114.144 35.416V49.444H122.628C125.148 49.444 127.276 48.856 129.012 47.68C130.748 46.448 131.616 44.684 131.616 42.388C131.616 37.74 128.368 35.416 121.872 35.416H114.144ZM123.72 74.224C126.968 74.224 129.544 73.58 131.448 72.292C133.352 71.004 134.304 69.128 134.304 66.664C134.304 64.256 133.408 62.38 131.616 61.036C129.88 59.636 127.276 58.936 123.804 58.936H114.144V74.224H123.72ZM156.107 84.64V22.816H167.111V84.64H156.107ZM198.307 85.312C191.867 85.312 186.631 83.324 182.599 79.348C178.567 75.372 176.551 70.304 176.551 64.144C176.551 57.984 178.567 52.916 182.599 48.94C186.631 44.964 191.867 42.976 198.307 42.976C204.691 42.976 209.927 44.936 214.015 48.856C218.103 52.776 220.147 57.872 220.147 64.144C220.147 70.416 218.103 75.512 214.015 79.432C209.927 83.352 204.691 85.312 198.307 85.312ZM198.307 75.484C201.331 75.484 203.851 74.42 205.867 72.292C207.939 70.164 208.975 67.448 208.975 64.144C208.975 60.784 207.967 58.068 205.951 55.996C203.935 53.868 201.387 52.804 198.307 52.804C195.171 52.804 192.595 53.896 190.579 56.08C188.619 58.208 187.639 60.896 187.639 64.144C187.639 67.336 188.647 70.024 190.663 72.208C192.679 74.392 195.227 75.484 198.307 75.484ZM247.839 85.312C241.679 85.312 236.611 83.352 232.635 79.432C228.715 75.512 226.755 70.416 226.755 64.144C226.755 57.872 228.743 52.776 232.719 48.856C236.751 44.936 241.959 42.976 248.343 42.976C251.759 42.976 255.007 43.648 258.087 44.992C261.167 46.336 263.715 48.268 265.731 50.788L258.339 57.172C255.819 54.26 252.627 52.804 248.763 52.804C245.515 52.804 242.883 53.868 240.867 55.996C238.851 58.068 237.843 60.756 237.843 64.06C237.843 67.42 238.851 70.164 240.867 72.292C242.939 74.42 245.599 75.484 248.847 75.484C252.767 75.484 255.959 74.084 258.423 71.284L265.899 77.92C263.995 80.104 261.475 81.896 258.339 83.296C255.259 84.64 251.759 85.312 247.839 85.312ZM290.448 68.344H290.28L284.568 74.812V84.64H273.564V22.816H284.568V60.196H284.652L299.352 43.648H312.204L297.756 59.944L312.456 84.64H300.192L290.448 68.344ZM342.449 42.976C347.993 42.976 352.585 44.992 356.225 49.024C359.921 53 361.769 58.068 361.769 64.228C361.769 70.5 359.921 75.596 356.225 79.516C352.585 83.38 347.881 85.312 342.113 85.312C337.073 85.312 333.041 83.548 330.017 80.02H329.849V101.272H318.845V43.648H329.849V48.352H330.017C333.153 44.768 337.297 42.976 342.449 42.976ZM340.097 75.484C343.233 75.484 345.753 74.448 347.657 72.376C349.617 70.304 350.597 67.616 350.597 64.312C350.597 60.84 349.589 58.068 347.573 55.996C345.613 53.868 343.121 52.804 340.097 52.804C336.961 52.804 334.385 53.896 332.369 56.08C330.409 58.264 329.429 61.008 329.429 64.312C329.429 67.616 330.437 70.304 332.453 72.376C334.525 74.448 337.073 75.484 340.097 75.484ZM400.005 43.648H410.925V84.64H400.509V79.684H400.257C397.401 83.436 393.313 85.312 387.993 85.312C382.281 85.312 377.577 83.38 373.881 79.516C370.241 75.596 368.421 70.5 368.421 64.228C368.421 58.068 370.241 53 373.881 49.024C377.577 44.992 382.197 42.976 387.741 42.976C392.837 42.976 396.841 44.74 399.753 48.268H400.005V43.648ZM390.009 75.484C392.921 75.484 395.385 74.448 397.401 72.376C399.417 70.304 400.425 67.616 400.425 64.312C400.425 61.008 399.445 58.264 397.485 56.08C395.525 53.896 393.061 52.804 390.093 52.804C387.069 52.804 384.549 53.868 382.533 55.996C380.517 58.068 379.509 60.84 379.509 64.312C379.509 67.616 380.489 70.304 382.449 72.376C384.409 74.448 386.929 75.484 390.009 75.484ZM448.592 43.648H460.016L437.924 101.272H426.668L433.892 82.12L417.596 43.648H429.02L439.1 69.016H439.184L448.592 43.648Z" fill="black"/>
<path d="M80.38 46.47L40.19 70.58L0 46.47L40.19 22.35L80.38 46.47Z" fill="url(#paint0_linear_1_14)"/>
<path opacity="0.8" d="M0 46.47V24.11L40.19 0V22.35L0 46.47Z" fill="url(#paint1_linear_1_14)"/>
<path opacity="0.8" d="M40.19 0L80.38 24.11V46.47L40.19 22.35V0Z" fill="url(#paint2_linear_1_14)"/>
<path opacity="0.8" d="M0 61.23L40.19 37.12L80.38 61.23L40.19 85.35L0 61.23Z" fill="url(#paint3_linear_1_14)"/>
<path d="M80.38 61.23V83.59L40.19 107.7V85.35L80.38 61.23Z" fill="url(#paint4_linear_1_14)"/>
<path d="M40.19 107.7L0 83.59V61.23L40.19 85.35V107.7Z" fill="url(#paint5_linear_1_14)"/>
<defs>
<linearGradient id="paint0_linear_1_14" x1="80.38" y1="46.47" x2="0" y2="46.47" gradientUnits="userSpaceOnUse">
<stop stop-color="#07C49D"/>
<stop offset="1" stop-color="#FC697C"/>
</linearGradient>
<linearGradient id="paint1_linear_1_14" x1="0" y1="23.23" x2="40.19" y2="23.23" gradientUnits="userSpaceOnUse">
<stop stop-color="#EB3836"/>
<stop offset="1" stop-color="#E435A4"/>
</linearGradient>
<linearGradient id="paint2_linear_1_14" x1="40.19" y1="23.23" x2="79.9" y2="23.23" gradientUnits="userSpaceOnUse">
<stop stop-color="#EB82C2"/>
<stop offset="1" stop-color="#35F78F"/>
</linearGradient>
<linearGradient id="paint3_linear_1_14" x1="0" y1="61.24" x2="80.38" y2="61.24" gradientUnits="userSpaceOnUse">
<stop stop-color="#D472F7"/>
<stop offset="1" stop-color="#01F2F7"/>
</linearGradient>
<linearGradient id="paint4_linear_1_14" x1="40.19" y1="84.47" x2="80.38" y2="84.47" gradientUnits="userSpaceOnUse">
<stop stop-color="#0192DD"/>
<stop offset="1" stop-color="#00C5ED"/>
</linearGradient>
<linearGradient id="paint5_linear_1_14" x1="0" y1="84.47" x2="40.19" y2="84.47" gradientUnits="userSpaceOnUse">
<stop stop-color="#4D3AF3"/>
<stop offset="1" stop-color="#0062CD"/>
</linearGradient>
</defs>
</svg>
