<svg xmlns="http://www.w3.org/2000/svg" xmlns:xlink="http://www.w3.org/1999/xlink" width="500" zoomAndPan="magnify" viewBox="0 0 375 49.499998" height="66" preserveAspectRatio="xMidYMid meet" version="1.0"><defs><g/><clipPath id="5daf082a22"><path d="M 2 0 L 45.996094 0 L 45.996094 22 L 2 22 Z M 2 0 " clip-rule="nonzero"/></clipPath><clipPath id="bf4cb1eff9"><path d="M 23 11 L 45.996094 11 L 45.996094 49 L 23 49 Z M 23 11 " clip-rule="nonzero"/></clipPath><clipPath id="017303e881"><path d="M 1.875 0 L 45.996094 0 L 45.996094 49.003906 L 1.875 49.003906 Z M 1.875 0 " clip-rule="nonzero"/></clipPath></defs><g fill="#000000" fill-opacity="1"><g transform="translate(50.51398, 37.653252)"><g><path d="M 21.484375 0 L 2.890625 0 L 2.890625 -25.90625 L 21.875 -25.90625 C 25.25 -25.90625 28.023438 -25.75 30.203125 -25.4375 C 32.390625 -25.132812 34.070312 -24.65625 35.25 -24 C 36.425781 -23.34375 37.222656 -22.507812 37.640625 -21.5 C 38.066406 -20.488281 38.28125 -19.28125 38.28125 -17.875 C 38.25 -16.757812 37.945312 -15.835938 37.375 -15.109375 C 36.800781 -14.378906 36.128906 -13.835938 35.359375 -13.484375 C 34.597656 -13.128906 33.925781 -12.953125 33.34375 -12.953125 C 33.914062 -12.953125 34.578125 -12.835938 35.328125 -12.609375 C 36.085938 -12.390625 36.828125 -12.066406 37.546875 -11.640625 C 38.265625 -11.222656 38.859375 -10.710938 39.328125 -10.109375 C 39.804688 -9.515625 40.046875 -8.832031 40.046875 -8.0625 C 40.046875 -7.050781 39.925781 -6.125 39.6875 -5.28125 C 39.457031 -4.4375 38.988281 -3.6875 38.28125 -3.03125 C 37.582031 -2.382812 36.546875 -1.832031 35.171875 -1.375 C 33.796875 -0.925781 32 -0.582031 29.78125 -0.34375 C 27.5625 -0.113281 24.796875 0 21.484375 0 Z M 20.859375 -15.171875 C 22.453125 -15.171875 23.6875 -15.25 24.5625 -15.40625 C 25.4375 -15.5625 26.039062 -15.800781 26.375 -16.125 C 26.71875 -16.445312 26.890625 -16.851562 26.890625 -17.34375 C 26.890625 -17.851562 26.71875 -18.265625 26.375 -18.578125 C 26.039062 -18.898438 25.4375 -19.132812 24.5625 -19.28125 C 23.6875 -19.4375 22.453125 -19.515625 20.859375 -19.515625 L 13.765625 -19.515625 L 13.765625 -15.171875 Z M 20.859375 -6.390625 C 22.492188 -6.390625 23.816406 -6.429688 24.828125 -6.515625 C 25.835938 -6.609375 26.578125 -6.800781 27.046875 -7.09375 C 27.515625 -7.394531 27.75 -7.882812 27.75 -8.5625 C 27.75 -9.238281 27.515625 -9.726562 27.046875 -10.03125 C 26.578125 -10.34375 25.835938 -10.535156 24.828125 -10.609375 C 23.816406 -10.691406 22.492188 -10.734375 20.859375 -10.734375 L 13.765625 -10.734375 L 13.765625 -6.390625 Z M 20.859375 -6.390625 "/></g></g></g><g fill="#000000" fill-opacity="1"><g transform="translate(91.998085, 37.653252)"><g><path d="M 33.15625 0 L 2.890625 0 L 2.890625 -25.921875 L 13.765625 -25.921875 L 13.765625 -6.40625 L 33.15625 -6.40625 Z M 33.15625 0 "/></g></g></g><g fill="#000000" fill-opacity="1"><g transform="translate(125.860818, 37.653252)"><g><path d="M 19.609375 0.5625 C 13.191406 0.5625 8.472656 -0.753906 5.453125 -3.390625 C 2.785156 -5.734375 1.453125 -8.921875 1.453125 -12.953125 C 1.453125 -16.972656 2.785156 -20.15625 5.453125 -22.5 C 8.472656 -25.132812 13.191406 -26.453125 19.609375 -26.453125 C 26.015625 -26.453125 30.726562 -25.132812 33.75 -22.5 C 36.425781 -20.15625 37.765625 -16.972656 37.765625 -12.953125 C 37.765625 -8.921875 36.425781 -5.734375 33.75 -3.390625 C 30.726562 -0.753906 26.015625 0.5625 19.609375 0.5625 Z M 19.609375 -6.390625 C 22.234375 -6.390625 24.160156 -7.144531 25.390625 -8.65625 C 26.367188 -9.875 26.859375 -11.304688 26.859375 -12.953125 C 26.859375 -14.597656 26.367188 -16.023438 25.390625 -17.234375 C 24.160156 -18.753906 22.234375 -19.515625 19.609375 -19.515625 C 16.972656 -19.515625 15.035156 -18.753906 13.796875 -17.234375 C 12.816406 -16.023438 12.328125 -14.597656 12.328125 -12.953125 C 12.328125 -11.304688 12.816406 -9.875 13.796875 -8.65625 C 15.035156 -7.144531 16.972656 -6.390625 19.609375 -6.390625 Z M 19.609375 -6.390625 "/></g></g></g><g fill="#000000" fill-opacity="1"><g transform="translate(165.05128, 37.653252)"><g><path d="M 19.609375 0.5625 C 13.191406 0.5625 8.472656 -0.753906 5.453125 -3.390625 C 2.785156 -5.722656 1.453125 -8.90625 1.453125 -12.9375 C 1.453125 -16.96875 2.785156 -20.15625 5.453125 -22.5 C 8.472656 -25.125 13.191406 -26.4375 19.609375 -26.4375 C 23.359375 -26.4375 26.460938 -26.003906 28.921875 -25.140625 C 31.378906 -24.273438 33.285156 -23.097656 34.640625 -21.609375 C 36.003906 -20.117188 36.910156 -18.410156 37.359375 -16.484375 L 25.921875 -16.484375 C 24.773438 -18.492188 22.671875 -19.5 19.609375 -19.5 C 16.972656 -19.5 15.035156 -18.738281 13.796875 -17.21875 C 12.816406 -16.007812 12.328125 -14.582031 12.328125 -12.9375 C 12.328125 -11.28125 12.816406 -9.851562 13.796875 -8.65625 C 15.035156 -7.132812 16.972656 -6.375 19.609375 -6.375 C 22.671875 -6.375 24.773438 -7.382812 25.921875 -9.40625 L 37.359375 -9.40625 C 36.910156 -7.46875 36.003906 -5.753906 34.640625 -4.265625 C 33.285156 -2.773438 31.378906 -1.597656 28.921875 -0.734375 C 26.460938 0.128906 23.359375 0.5625 19.609375 0.5625 Z M 19.609375 0.5625 "/></g></g></g><g fill="#000000" fill-opacity="1"><g transform="translate(203.844419, 37.653252)"><g><path d="M 45.453125 0 L 31.328125 0 L 20.203125 -8.671875 L 13.765625 -4.28125 L 13.765625 0 L 2.890625 0 L 2.890625 -25.921875 L 13.765625 -25.921875 L 13.765625 -13.921875 L 31.21875 -25.921875 L 45.453125 -25.921875 L 26.890625 -13.25 Z M 45.453125 0 "/></g></g></g><g fill="#000000" fill-opacity="1"><g transform="translate(249.554592, 37.653252)"><g><path d="M 13.765625 0 L 2.890625 0 L 2.890625 -25.921875 L 20.578125 -25.921875 C 24.804688 -25.921875 28.21875 -25.601562 30.8125 -24.96875 C 33.40625 -24.34375 35.296875 -23.351562 36.484375 -22 C 37.679688 -20.644531 38.28125 -18.875 38.28125 -16.6875 C 38.28125 -14.519531 37.679688 -12.757812 36.484375 -11.40625 C 35.296875 -10.050781 33.40625 -9.054688 30.8125 -8.421875 C 28.21875 -7.796875 24.804688 -7.484375 20.578125 -7.484375 L 13.765625 -7.484375 Z M 13.765625 -13.875 L 19.984375 -13.890625 C 21.710938 -13.890625 23.078125 -13.957031 24.078125 -14.09375 C 25.078125 -14.238281 25.816406 -14.4375 26.296875 -14.6875 C 26.773438 -14.9375 27.078125 -15.234375 27.203125 -15.578125 C 27.335938 -15.921875 27.40625 -16.289062 27.40625 -16.6875 C 27.40625 -17.101562 27.335938 -17.484375 27.203125 -17.828125 C 27.078125 -18.171875 26.773438 -18.46875 26.296875 -18.71875 C 25.816406 -18.96875 25.078125 -19.160156 24.078125 -19.296875 C 23.078125 -19.441406 21.710938 -19.515625 19.984375 -19.515625 L 13.765625 -19.515625 Z M 13.765625 -13.875 "/></g></g></g><g fill="#000000" fill-opacity="1"><g transform="translate(289.268806, 37.653252)"><g><path d="M 43.546875 0 L 32.515625 0 L 30.078125 -4.25 L 13.734375 -4.25 L 11.296875 0 L 0.265625 0 L 16.859375 -25.90625 L 26.953125 -25.90625 Z M 26.40625 -10.65625 L 21.921875 -18.515625 L 17.390625 -10.65625 Z M 26.40625 -10.65625 "/></g></g></g><g fill="#000000" fill-opacity="1"><g transform="translate(333.064606, 37.653252)"><g><path d="M 25.296875 0 L 14.421875 0 L 14.421875 -12.28125 L 0.265625 -25.921875 L 12.328125 -25.921875 L 19.859375 -18.171875 L 27.375 -25.921875 L 39.421875 -25.921875 L 25.296875 -12.28125 Z M 25.296875 0 "/></g></g></g><g clip-path="url(#5daf082a22)"><path fill="#f9f9f9" d="M 23.9375 0.535156 L 2.449219 11.21875 L 23.9375 21.902344 L 45.425781 11.21875 Z M 23.9375 0.535156 " fill-opacity="1" fill-rule="nonzero"/></g><g clip-path="url(#bf4cb1eff9)"><path fill="#ececec" d="M 23.9375 21.902344 L 23.9375 48.609375 L 45.425781 37.925781 L 45.425781 11.21875 Z M 23.9375 21.902344 " fill-opacity="1" fill-rule="nonzero"/></g><path fill="#cccccc" d="M 23.9375 21.902344 L 23.9375 48.609375 L 2.449219 37.925781 L 2.449219 11.21875 Z M 23.9375 21.902344 " fill-opacity="1" fill-rule="nonzero"/><g clip-path="url(#017303e881)"><path stroke-linecap="butt" transform="matrix(1.074407, 0, 0, 1.068374, -8.296405, -1.989312)" fill="none" stroke-linejoin="miter" d="M 30.001571 2.373876 L 10.001444 12.373739 L 10.001444 37.375225 L 30.001571 47.375088 L 50.001698 37.375225 L 50.001698 12.373739 Z M 30.001571 2.373876 " stroke="#4d4d4d" stroke-width="1" stroke-opacity="1" stroke-miterlimit="4"/></g></svg>