<?xml version="1.0" encoding="utf-8"?>
<!-- Generator: Adobe Illustrator 27.4.1, SVG Export Plug-In . SVG Version: 6.00 Build 0)  -->
<svg version="1.1" id="Layer_1" xmlns="http://www.w3.org/2000/svg" xmlns:xlink="http://www.w3.org/1999/xlink" x="0px" y="0px"
	 viewBox="0 0 434.5 108" style="enable-background:new 0 0 434.5 108;" xml:space="preserve">
<style type="text/css">
	.st0{fill:url(#SVGID_1_);}
	.st1{opacity:0.8;fill:url(#SVGID_00000088837951536240468040000018114221191026760066_);}
	.st2{opacity:0.8;fill:url(#SVGID_00000011000035488988285510000008049541685171084691_);}
	.st3{opacity:0.8;fill:url(#SVGID_00000044876396335374718870000014388884108546283964_);}
	.st4{fill:url(#SVGID_00000145761165358863523130000012618935088650389654_);}
	.st5{fill:url(#SVGID_00000024723882174796082080000004898268962153567388_);}
</style>
<g>
	<g>
		<g id="_x32_">
			
				<linearGradient id="SVGID_1_" gradientUnits="userSpaceOnUse" x1="80.9382" y1="46.6158" x2="0.5543" y2="46.6158" gradientTransform="matrix(1 0 0 1 -1.323717e-03 0)">
				<stop  offset="0" style="stop-color:#07C49D"/>
				<stop  offset="1" style="stop-color:#FC697C"/>
			</linearGradient>
			<polygon class="st0" points="80.9,46.6 40.7,70.7 0.6,46.6 40.7,22.5 			"/>
			
				<linearGradient id="SVGID_00000047023586004385069060000000415400026846714299_" gradientUnits="userSpaceOnUse" x1="0.5543" y1="23.3824" x2="40.7463" y2="23.3824" gradientTransform="matrix(1 0 0 1 -1.323717e-03 0)">
				<stop  offset="0" style="stop-color:#EB3836"/>
				<stop  offset="1" style="stop-color:#E435A4"/>
			</linearGradient>
			<polygon style="opacity:0.8;fill:url(#SVGID_00000047023586004385069060000000415400026846714299_);" points="0.6,46.6 0.6,24.3 
				40.7,0.1 40.7,22.5 			"/>
			
				<linearGradient id="SVGID_00000013174622743058208580000015857379148282486695_" gradientUnits="userSpaceOnUse" x1="40.7463" y1="23.3824" x2="80.4573" y2="23.3824" gradientTransform="matrix(1 0 0 1 -1.323717e-03 0)">
				<stop  offset="0" style="stop-color:#EB82C2"/>
				<stop  offset="1" style="stop-color:#35F78F"/>
			</linearGradient>
			<polygon style="opacity:0.8;fill:url(#SVGID_00000013174622743058208580000015857379148282486695_);" points="40.7,0.1 
				80.9,24.3 80.9,46.6 40.7,22.5 			"/>
		</g>
		<g id="_x31_">
			
				<linearGradient id="SVGID_00000046307827551518373640000011418535049189910152_" gradientUnits="userSpaceOnUse" x1="-1141.7225" y1="-113.5689" x2="-1222.1063" y2="-113.5689" gradientTransform="matrix(-1 0 0 -1 -1141.1694 -52.1847)">
				<stop  offset="0" style="stop-color:#D472F7"/>
				<stop  offset="0.9994" style="stop-color:#01F2F7"/>
			</linearGradient>
			<polygon style="opacity:0.8;fill:url(#SVGID_00000046307827551518373640000011418535049189910152_);" points="0.6,61.4 
				40.7,37.3 80.9,61.4 40.7,85.5 			"/>
			
				<linearGradient id="SVGID_00000138571224945942010790000000679283261139660986_" gradientUnits="userSpaceOnUse" x1="40.7449" y1="84.6176" x2="80.9369" y2="84.6176">
				<stop  offset="0" style="stop-color:#456FE8"/>
				<stop  offset="0" style="stop-color:#0192DD"/>
				<stop  offset="1" style="stop-color:#00C5ED"/>
			</linearGradient>
			<polygon style="fill:url(#SVGID_00000138571224945942010790000000679283261139660986_);" points="80.9,61.4 80.9,83.7 
				40.7,107.9 40.7,85.5 			"/>
			
				<linearGradient id="SVGID_00000078041302172551286380000007476739935904674214_" gradientUnits="userSpaceOnUse" x1="0.553" y1="84.6176" x2="40.7449" y2="84.6176">
				<stop  offset="0" style="stop-color:#4D3AF3"/>
				<stop  offset="1" style="stop-color:#0062CD"/>
			</linearGradient>
			<polygon style="fill:url(#SVGID_00000078041302172551286380000007476739935904674214_);" points="40.7,107.9 0.6,83.7 0.6,61.4 
				40.7,85.5 			"/>
		</g>
	</g>
	<g>
		<path d="M137.2,51.8c3.8,0.9,6.8,2.7,8.9,5.3s3.1,5.9,3.1,9.8c0,4.9-1.7,8.9-5,11.9c-3.3,3-8.1,4.5-14.3,4.5h-24.6V24h21.4
			c6.3,0,11.1,1.2,14.4,3.7c3.3,2.5,5,6,5,10.8c0,2.9-0.7,5.5-2.2,7.9C142.5,48.8,140.3,50.6,137.2,51.8L137.2,51.8z M116.9,34.4
			v13.9h8.4c2.5,0,4.6-0.6,6.3-1.8c1.7-1.2,2.6-2.9,2.6-5.2c0-4.6-3.2-6.9-9.7-6.9H116.9z M126.4,73c3.2,0,5.8-0.6,7.7-1.9
			c1.9-1.3,2.8-3.1,2.8-5.6c0-2.4-0.9-4.3-2.6-5.6c-1.8-1.4-4.4-2-7.8-2h-9.6V73H126.4z"/>
		<path d="M154.9,83.3V21.8h10.9v61.5H154.9z"/>
		<path d="M193.1,84c-6.4,0-11.6-2-15.6-5.9c-4-4-6-9-6-15.1c0-6.1,2-11.2,6-15.1c4-4,9.2-5.9,15.6-5.9c6.3,0,11.6,2,15.6,5.8
			c4.1,3.9,6.1,9,6.1,15.2c0,6.2-2,11.3-6.1,15.2C204.6,82,199.4,84,193.1,84z M193.1,74.2c3,0,5.5-1.1,7.6-3.2c2-2.1,3-4.8,3-8.1
			c0-3.3-1-6.1-3-8.1c-2-2.1-4.5-3.1-7.6-3.1c-3.1,0-5.7,1.1-7.6,3.2c-2,2.1-3,4.8-3,8.1c0,3.2,1,5.8,3,8
			C187.5,73.1,190,74.2,193.1,74.2z"/>
		<path d="M238.6,84c-6.1,0-11.1-1.9-15.1-5.8c-3.9-3.9-5.9-9-5.9-15.2c0-6.2,2-11.3,6-15.2c4-3.9,9.1-5.8,15.5-5.8
			c3.4,0,6.6,0.7,9.7,2c3.1,1.3,5.6,3.3,7.6,5.8L249,56c-2.5-2.9-5.7-4.3-9.5-4.3c-3.2,0-5.8,1-7.9,3.1c-2,2.1-3,4.8-3,8.1
			c0,3.3,1,6.1,3,8.2c2,2.1,4.7,3.2,7.9,3.2c3.9,0,7.1-1.4,9.5-4.2l7.4,6.6c-1.9,2.2-4.4,3.9-7.5,5.3C246,83.3,242.5,84,238.6,84z"
			/>
		<path d="M277.1,67.1l-0.1,0l-5.7,6.4v9.8h-10.9V21.8h10.9V59l0.1,0L286,42.6h12.8l-14.4,16.2l14.6,24.6h-12.2L277.1,67.1z"/>
		<path d="M325.1,41.9c5.5,0,10.1,2,13.7,6c3.6,4,5.5,9,5.5,15.2c0,6.2-1.8,11.3-5.5,15.2c-3.6,3.9-8.3,5.8-14.1,5.8
			c-5,0-9-1.8-12-5.3h-0.2v21.1h-10.9V42.6h10.9v4.7h0.2C315.9,43.7,320,41.9,325.1,41.9z M322.8,74.2c3.1,0,5.6-1,7.6-3.1
			c1.9-2.1,2.9-4.7,2.9-8c0-3.5-1-6.2-3-8.3c-2-2.1-4.5-3.1-7.5-3.1c-3.1,0-5.7,1.1-7.6,3.3c-2,2.2-3,4.9-3,8.2c0,3.3,1,6,3,8
			C317.3,73.2,319.8,74.2,322.8,74.2z"/>
		<path d="M378.6,42.6h10.9v40.8h-10.4v-4.9h-0.3c-2.8,3.7-6.9,5.6-12.2,5.6c-5.7,0-10.3-1.9-14-5.8c-3.6-3.9-5.5-8.9-5.5-15.2
			c0-6.1,1.8-11.2,5.5-15.2c3.6-4,8.2-6,13.7-6c5.1,0,9,1.8,11.9,5.3h0.3V42.6z M368.6,74.2c2.9,0,5.3-1,7.3-3.1c2-2.1,3-4.7,3-8
			c0-3.3-1-6-2.9-8.2c-2-2.2-4.4-3.3-7.3-3.3c-3,0-5.5,1-7.5,3.1c-2,2.1-3,4.9-3,8.3c0,3.3,1,6,2.9,8
			C363.1,73.2,365.6,74.2,368.6,74.2z"/>
		<path d="M423.1,42.6h11.4l-22,57.3l-11.2,0l7.2-19l-16.2-38.3h11.4l10,25.2l-0.1-0.1L423.1,42.6z"/>
	</g>
</g>
</svg>
