<?xml version="1.0" encoding="utf-8"?>
<!-- Generator: Adobe Illustrator 27.4.1, SVG Export Plug-In . SVG Version: 6.00 Build 0)  -->
<svg version="1.1" id="Layer_1" xmlns="http://www.w3.org/2000/svg" xmlns:xlink="http://www.w3.org/1999/xlink" x="0px" y="0px"
	 viewBox="0 0 433.9 107.7" style="enable-background:new 0 0 433.9 107.7;" xml:space="preserve">
<style type="text/css">
	.st0{enable-background:new    ;}
	.st1{fill:#FFFFFF;}
	.st2{fill:url(#SVGID_1_);}
	.st3{opacity:0.8;fill:url(#SVGID_00000058554326812244789930000002758274332958570935_);enable-background:new    ;}
	.st4{opacity:0.8;fill:url(#SVGID_00000178896996276028966270000000313253986459517077_);enable-background:new    ;}
	.st5{opacity:0.8;fill:url(#SVGID_00000149359033905937171520000012832252813699418793_);enable-background:new    ;}
	.st6{fill:url(#SVGID_00000108279571233188469140000008814497551783293106_);}
	.st7{fill:url(#SVGID_00000168106923178090242800000010699937325029475206_);}
</style>
<g>
	<g class="st0">
		<path class="st1" d="M128.8,51.7c3.8,0.9,6.8,2.7,8.9,5.3c2.1,2.6,3.1,5.9,3.1,9.8c0,4.9-1.7,8.9-5,11.9c-3.3,3-8.1,4.5-14.3,4.5
			H97V23.9h21.4c6.3,0,11.1,1.2,14.4,3.7c3.3,2.5,5,6,5,10.8c0,2.9-0.7,5.5-2.2,7.9C134.1,48.6,131.8,50.4,128.8,51.7L128.8,51.7z
			 M108.5,34.2v13.9h8.4c2.5,0,4.6-0.6,6.3-1.8c1.7-1.2,2.6-2.9,2.6-5.2c0-4.6-3.2-6.9-9.7-6.9H108.5z M118,72.8
			c3.2,0,5.8-0.6,7.7-1.9c1.9-1.3,2.8-3.1,2.8-5.6c0-2.4-0.9-4.3-2.6-5.6c-1.8-1.4-4.4-2-7.8-2h-9.6v15.2H118z"/>
		<path class="st1" d="M146.9,83.2V21.7h10.9v61.5H146.9z"/>
		<path class="st1" d="M185.5,83.8c-6.4,0-11.6-2-15.6-5.9c-4-4-6-9-6-15.1c0-6.1,2-11.2,6-15.1c4-4,9.2-5.9,15.6-5.9
			c6.3,0,11.6,1.9,15.6,5.8c4.1,3.9,6.1,9,6.1,15.2c0,6.2-2,11.3-6.1,15.2C197,81.9,191.8,83.8,185.5,83.8z M185.5,74.1
			c3,0,5.5-1.1,7.6-3.2c2-2.1,3-4.8,3-8.1c0-3.3-1-6.1-3-8.1c-2-2.1-4.5-3.1-7.6-3.1c-3.1,0-5.7,1.1-7.6,3.2c-2,2.1-3,4.8-3,8.1
			c0,3.2,1,5.8,3,8C179.9,73,182.4,74.1,185.5,74.1z"/>
		<path class="st1" d="M231.4,83.8c-6.1,0-11.1-1.9-15.1-5.8c-3.9-3.9-5.9-9-5.9-15.2c0-6.2,2-11.3,6-15.2c4-3.9,9.1-5.8,15.5-5.8
			c3.4,0,6.6,0.7,9.7,2c3.1,1.3,5.6,3.3,7.6,5.8l-7.3,6.3c-2.5-2.9-5.7-4.3-9.5-4.3c-3.2,0-5.8,1-7.9,3.1c-2,2.1-3,4.8-3,8.1
			c0,3.3,1,6.1,3,8.2c2,2.1,4.7,3.2,7.9,3.2c3.9,0,7.1-1.4,9.5-4.2l7.4,6.6c-1.9,2.2-4.4,3.9-7.5,5.3
			C238.8,83.1,235.3,83.8,231.4,83.8z"/>
		<path class="st1" d="M270.4,67l-0.1,0l-5.7,6.4v9.8h-10.9V21.7h10.9v37.2l0.1,0l14.6-16.5h12.8l-14.4,16.2l14.6,24.6h-12.2
			L270.4,67z"/>
		<path class="st1" d="M318.8,41.7c5.5,0,10.1,2,13.7,6c3.6,4,5.5,9,5.5,15.2c0,6.2-1.8,11.3-5.5,15.2c-3.6,3.9-8.3,5.8-14.1,5.8
			c-5,0-9-1.8-12-5.3h-0.2v21.1h-10.9V42.4h10.9v4.7h0.2C309.5,43.5,313.7,41.7,318.8,41.7z M316.5,74.1c3.1,0,5.6-1,7.6-3.1
			c1.9-2.1,2.9-4.7,2.9-8c0-3.5-1-6.2-3-8.3c-2-2.1-4.5-3.1-7.5-3.1c-3.1,0-5.7,1.1-7.6,3.3c-2,2.2-3,4.9-3,8.2c0,3.3,1,6,3,8
			C310.9,73,313.4,74.1,316.5,74.1z"/>
		<path class="st1" d="M372.7,42.4h10.9v40.8h-10.4v-4.9h-0.3c-2.8,3.7-6.9,5.6-12.2,5.6c-5.7,0-10.3-1.9-14-5.8
			c-3.6-3.9-5.5-8.9-5.5-15.2c0-6.1,1.8-11.2,5.5-15.2c3.6-4,8.2-6,13.7-6c5.1,0,9,1.8,11.9,5.3h0.2V42.4z M362.7,74.1
			c2.9,0,5.3-1,7.3-3.1c2-2.1,3-4.7,3-8c0-3.3-1-6-2.9-8.2c-2-2.2-4.4-3.3-7.3-3.3c-3,0-5.5,1-7.5,3.1c-2,2.1-3,4.9-3,8.3
			c0,3.3,1,6,2.9,8C357.2,73,359.7,74.1,362.7,74.1z"/>
		<path class="st1" d="M417.6,42.4H429l-22,57.3l-11.2,0l7.2-19l-16.2-38.3h11.4l10,25.2l-0.1-0.1L417.6,42.4z"/>
	</g>
</g>
<linearGradient id="SVGID_1_" gradientUnits="userSpaceOnUse" x1="80.38" y1="63.535" x2="9.094947e-13" y2="63.535" gradientTransform="matrix(1 0 0 -1 0 110)">
	<stop  offset="0" style="stop-color:#07C49D"/>
	<stop  offset="1" style="stop-color:#FC697C"/>
</linearGradient>
<polygon class="st2" points="80.4,46.5 40.2,70.6 0,46.5 40.2,22.4 "/>
<linearGradient id="SVGID_00000088853937770789115010000003337973430096956339_" gradientUnits="userSpaceOnUse" x1="0" y1="86.765" x2="40.19" y2="86.765" gradientTransform="matrix(1 0 0 -1 0 110)">
	<stop  offset="0" style="stop-color:#EB3836"/>
	<stop  offset="1" style="stop-color:#E435A4"/>
</linearGradient>
<polygon style="opacity:0.8;fill:url(#SVGID_00000088853937770789115010000003337973430096956339_);enable-background:new    ;" points="
	0,46.5 0,24.1 40.2,0 40.2,22.4 "/>
<linearGradient id="SVGID_00000018220729778436910440000016370043647175619235_" gradientUnits="userSpaceOnUse" x1="40.19" y1="86.765" x2="79.9" y2="86.765" gradientTransform="matrix(1 0 0 -1 0 110)">
	<stop  offset="0" style="stop-color:#EB82C2"/>
	<stop  offset="1" style="stop-color:#35F78F"/>
</linearGradient>
<polygon style="opacity:0.8;fill:url(#SVGID_00000018220729778436910440000016370043647175619235_);enable-background:new    ;" points="
	40.2,0 80.4,24.1 80.4,46.5 40.2,22.4 "/>
<linearGradient id="SVGID_00000013885697942891102910000010923262281586910380_" gradientUnits="userSpaceOnUse" x1="-1772.17" y1="1021.415" x2="-1852.55" y2="1021.415" gradientTransform="matrix(-1 0 0 1 -1772.17 -960.18)">
	<stop  offset="0" style="stop-color:#D472F7"/>
	<stop  offset="1" style="stop-color:#01F2F7"/>
</linearGradient>
<polygon style="opacity:0.8;fill:url(#SVGID_00000013885697942891102910000010923262281586910380_);enable-background:new    ;" points="
	0,61.2 40.2,37.1 80.4,61.2 40.2,85.3 "/>
<linearGradient id="SVGID_00000072994920483582409060000003721503105888270266_" gradientUnits="userSpaceOnUse" x1="40.19" y1="25.535" x2="80.38" y2="25.535" gradientTransform="matrix(1 0 0 -1 0 110)">
	<stop  offset="0" style="stop-color:#0192DD"/>
	<stop  offset="1" style="stop-color:#00C5ED"/>
</linearGradient>
<polygon style="fill:url(#SVGID_00000072994920483582409060000003721503105888270266_);" points="80.4,61.2 80.4,83.6 40.2,107.7 
	40.2,85.3 "/>
<linearGradient id="SVGID_00000100368474791293932220000015499499338254121889_" gradientUnits="userSpaceOnUse" x1="0" y1="25.535" x2="40.19" y2="25.535" gradientTransform="matrix(1 0 0 -1 0 110)">
	<stop  offset="0" style="stop-color:#4D3AF3"/>
	<stop  offset="1" style="stop-color:#0062CD"/>
</linearGradient>
<polygon style="fill:url(#SVGID_00000100368474791293932220000015499499338254121889_);" points="40.2,107.7 0,83.6 0,61.2 
	40.2,85.3 "/>
</svg>
